# xmcd
# Track frame offsets:
# 150
# 11354
# 25613
# 38109
# 50384
# 65148
# 80605
# 94587
# 105899
# 118462
# 133303
#
# Disc length: 1982 seconds
# Revision: 0
# Processed by: cddbd v1.4PL0 Copyright (c) Steve Scherf et al.
# Submitted via: VisiTrax 2.9.5.180 - For more info visit www.synapsa.com
#
DISCID=8b07bc0b
DTITLE=Porter Wagoner - The best I've ever been
DYEAR=2000
DGENRE=
TTITLE0=Brewster's farm
TTITLE1=I knew this day would come
TTITLE2=Dusty Delta memories
TTITLE3=Daddy's ole sains, mama's beliefs
TTITLE4=House on Mulberry Street
TTITLE5=Watching eagles fly
TTITLE6=I'd like to make that same mistake again
TTITLE7=Broken hearts beat on
TTITLE8=Ti' the right one comes along
TTITLE9=The fiddle and the bow
TTITLE10=When the silver eagle meets the great speckled bird
EXTD=
EXTT0=
EXTT1=
EXTT2=
EXTT3=
EXTT4=
EXTT5=
EXTT6=
EXTT7=
EXTT8=
EXTT9=
EXTT10=
PLAYORDER=
